<svg width="28" height="24" viewBox="0 0 28 24" fill="none" xmlns="http://www.w3.org/2000/svg">
<path d="M17.4999 2C17.964 2 18.4091 2.21071 18.7373 2.58579C19.0655 2.96086 19.2499 3.46957 19.2499 4V20C19.2499 20.5304 19.0655 21.0391 18.7373 21.4142C18.4091 21.7893 17.964 22 17.4999 22H10.4999C10.0357 22 9.59063 21.7893 9.26244 21.4142C8.93425 21.0391 8.74988 20.5304 8.74988 20V4C8.74988 3.46957 8.93425 2.96086 9.26244 2.58579C9.59063 2.21071 10.0357 2 10.4999 2H17.4999ZM10.4999 0C9.57162 0 8.68138 0.421427 8.025 1.17157C7.36863 1.92172 6.99988 2.93913 6.99988 4V20C6.99988 21.0609 7.36863 22.0783 8.025 22.8284C8.68138 23.5786 9.57162 24 10.4999 24H17.4999C18.4281 24 19.3184 23.5786 19.9747 22.8284C20.6311 22.0783 20.9999 21.0609 20.9999 20V4C20.9999 2.93913 20.6311 1.92172 19.9747 1.17157C19.3184 0.421427 18.4281 0 17.4999 0H10.4999Z" fill="black"/>
<path d="M14 19.9998C14.4641 19.9998 14.9092 19.7891 15.2374 19.414C15.5656 19.039 15.75 18.5303 15.75 17.9998C15.75 17.4694 15.5656 16.9607 15.2374 16.5856C14.9092 16.2106 14.4641 15.9998 14 15.9998C13.5359 15.9998 13.0908 16.2106 12.7626 16.5856C12.4344 16.9607 12.25 17.4694 12.25 17.9998C12.25 18.5303 12.4344 19.039 12.7626 19.414C13.0908 19.7891 13.5359 19.9998 14 19.9998ZM2.79826 4.11584C2.89986 4.17727 2.98987 4.26098 3.06315 4.36218C3.13643 4.46338 3.19155 4.5801 3.22535 4.70565C3.25915 4.8312 3.27098 4.96314 3.26016 5.09392C3.24933 5.2247 3.21607 5.35175 3.16226 5.46784C2.23169 7.48063 1.7468 9.72335 1.75001 11.9998C1.75001 14.3598 2.26101 16.5838 3.16226 18.5318C3.27087 18.7663 3.29353 19.0404 3.22527 19.294C3.15701 19.5475 3.00341 19.7597 2.79826 19.8838C2.59312 20.008 2.35323 20.0339 2.13138 19.9558C1.90952 19.8778 1.72387 19.7023 1.61526 19.4678C0.551305 17.1666 -0.00326821 14.6026 1.4489e-05 11.9998C1.4489e-05 9.30584 0.584514 6.76184 1.61526 4.53184C1.66902 4.41572 1.74226 4.31286 1.83082 4.2291C1.91937 4.14535 2.02149 4.08236 2.13135 4.04373C2.24121 4.0051 2.35665 3.99158 2.47108 4.00396C2.58551 4.01633 2.69669 4.05435 2.79826 4.11584V4.11584ZM25.2017 4.11584C25.3033 4.05435 25.4145 4.01633 25.5289 4.00396C25.6433 3.99158 25.7588 4.0051 25.8686 4.04373C25.9785 4.08236 26.0806 4.14535 26.1692 4.2291C26.2577 4.31286 26.331 4.41572 26.3847 4.53184C27.4488 6.83304 28.0033 9.3971 28 11.9998C28.0033 14.6026 27.4488 17.1666 26.3847 19.4678C26.2761 19.7023 26.0905 19.8778 25.8686 19.9558C25.6468 20.0339 25.4069 20.008 25.2017 19.8838C24.9966 19.7597 24.843 19.5475 24.7747 19.294C24.7065 19.0404 24.7291 18.7663 24.8377 18.5318C25.7683 16.519 26.2532 14.2763 26.25 11.9998C26.25 9.63984 25.739 7.41584 24.8377 5.46784C24.7839 5.35175 24.7507 5.2247 24.7398 5.09392C24.729 4.96314 24.7408 4.8312 24.7746 4.70565C24.8084 4.5801 24.8636 4.46338 24.9368 4.36218C25.0101 4.26098 25.1001 4.17727 25.2017 4.11584ZM5.34976 7.06784C5.45689 7.11558 5.55474 7.18698 5.63771 7.27797C5.72068 7.36896 5.78715 7.47774 5.8333 7.59811C5.87946 7.71847 5.90441 7.84805 5.90672 7.97944C5.90902 8.11083 5.88865 8.24145 5.84676 8.36384C5.45115 9.52269 5.24875 10.7559 5.25001 11.9998C5.25001 13.2838 5.46001 14.5098 5.84501 15.6358C5.89384 15.7594 5.92017 15.8931 5.92238 16.0287C5.92459 16.1643 5.90265 16.299 5.85789 16.4246C5.81312 16.5502 5.74647 16.6641 5.66199 16.7593C5.5775 16.8545 5.47695 16.9291 5.36645 16.9786C5.25594 17.028 5.1378 17.0512 5.01919 17.0468C4.90059 17.0424 4.78401 17.0105 4.67654 16.953C4.56906 16.8955 4.47295 16.8136 4.39404 16.7123C4.31513 16.6111 4.25507 16.4925 4.21751 16.3638C3.74233 14.973 3.49898 13.4929 3.50001 11.9998C3.50001 10.4618 3.75376 8.98984 4.21751 7.63584C4.30189 7.38905 4.46852 7.19061 4.68081 7.08412C4.8931 6.97762 5.13369 6.97177 5.34976 7.06784V7.06784ZM22.6502 7.06784C22.7573 7.01996 22.8716 6.99667 22.9866 6.99931C23.1016 7.00195 23.2149 7.03046 23.3203 7.08321C23.4256 7.13596 23.5208 7.21192 23.6004 7.30675C23.68 7.40157 23.7425 7.5134 23.7842 7.63584C24.2462 8.98984 24.5 10.4618 24.5 11.9998C24.5 13.5378 24.2462 15.0098 23.7825 16.3638C23.6902 16.5975 23.5228 16.7817 23.3151 16.8784C23.1073 16.9752 22.875 16.977 22.6661 16.8835C22.4572 16.7901 22.2877 16.6085 22.1926 16.3763C22.0974 16.1441 22.084 15.879 22.155 15.6358C22.54 14.5098 22.75 13.2838 22.75 11.9998C22.75 10.7158 22.54 9.48984 22.155 8.36384C22.0703 8.11692 22.0749 7.84166 22.1678 7.59861C22.2606 7.35557 22.4342 7.16464 22.6502 7.06784V7.06784Z" fill="black"/>
</svg>
