<svg width="24" height="24" viewBox="0 0 24 24" fill="none" xmlns="http://www.w3.org/2000/svg">
<path d="M12.5057 15.41L15.5743 19L12.4971 22.59L13.7143 24L18 19L13.7143 14L12.5057 15.41Z" fill="black"/>
<path d="M18.5057 15.41L21.5743 19L18.4971 22.59L19.7143 24L24 19L19.7143 14L18.5057 15.41Z" fill="black"/>
<path d="M10.2857 18H1.71429V2.91L11.5114 10.82C11.6549 10.9361 11.8254 10.9984 12 10.9984C12.1746 10.9984 12.3451 10.9361 12.4886 10.82L22.2857 2.91V12H24V2C24 1.46957 23.8194 0.960859 23.4979 0.585786C23.1764 0.210714 22.7404 0 22.2857 0H1.71429C1.25963 0 0.823594 0.210714 0.502103 0.585786C0.180612 0.960859 0 1.46957 0 2V18C0 18.5304 0.180612 19.0391 0.502103 19.4142C0.823594 19.7893 1.25963 20 1.71429 20H10.2857V18ZM20.4 2L12 8.78L3.6 2H20.4Z" fill="black"/>
</svg>
