<svg width="26" height="30" viewBox="0 0 26 30" fill="none" xmlns="http://www.w3.org/2000/svg">
<path d="M13 16.4C15.4853 16.4 17.5 14.5196 17.5 12.2C17.5 9.8804 15.4853 8 13 8C10.5147 8 8.5 9.8804 8.5 12.2C8.5 14.5196 10.5147 16.4 13 16.4Z" stroke="black" stroke-width="2" stroke-linecap="round" stroke-linejoin="round"/>
<path d="M13 1C9.8174 1 6.76516 2.18 4.51472 4.2804C2.26428 6.38081 1 9.22958 1 12.2C1 14.8488 1.603 16.582 3.25 18.5L13 29L22.75 18.5C24.397 16.582 25 14.8488 25 12.2C25 9.22958 23.7357 6.38081 21.4853 4.2804C19.2348 2.18 16.1826 1 13 1V1Z" stroke="black" stroke-width="2" stroke-linecap="round" stroke-linejoin="round"/>
</svg>
